<svg width="40" height="40" viewBox="0 0 40 40" fill="none" xmlns="http://www.w3.org/2000/svg">
<g clip-path="url(#clip0_1_125)">
<path d="M26 19.9999C26 21.5912 25.3679 23.1173 24.2427 24.2425C23.1174 25.3678 21.5913 25.9999 20 25.9999C18.4087 25.9999 16.8826 25.3678 15.7574 24.2425C14.6322 23.1173 14 21.5912 14 19.9999C14 19.6579 14.036 19.3239 14.098 18.9999H12V26.9939C12 27.5499 12.45 27.9999 13.006 27.9999H26.996C27.2625 27.9994 27.5178 27.8932 27.7061 27.7045C27.8943 27.5159 28 27.2604 28 26.9939V18.9999H25.902C25.964 19.3239 26 19.6579 26 19.9999ZM20 23.9999C20.5254 23.9998 21.0457 23.8962 21.5311 23.695C22.0164 23.4938 22.4574 23.199 22.8289 22.8273C23.2003 22.4557 23.4949 22.0146 23.6958 21.5291C23.8968 21.0436 24.0002 20.5233 24 19.9979C23.9999 19.4725 23.8963 18.9522 23.6951 18.4669C23.4939 17.9815 23.1991 17.5405 22.8274 17.1691C22.4558 16.7976 22.0147 16.503 21.5292 16.3021C21.0437 16.1011 20.5234 15.9978 19.998 15.9979C18.9369 15.9982 17.9193 16.42 17.1692 17.1705C16.419 17.921 15.9978 18.9388 15.998 19.9999C15.9983 21.061 16.4201 22.0786 17.1706 22.8287C17.9211 23.5789 18.9389 24.0002 20 23.9999ZM24.8 15.7999H27.198C27.3573 15.7999 27.5102 15.7368 27.623 15.6243C27.7358 15.5118 27.7995 15.3592 27.8 15.1999V12.8019C27.8 12.6422 27.7366 12.4891 27.6237 12.3762C27.5108 12.2633 27.3577 12.1999 27.198 12.1999H24.8C24.6404 12.1999 24.4872 12.2633 24.3743 12.3762C24.2614 12.4891 24.198 12.6422 24.198 12.8019V15.1999C24.2 15.5299 24.47 15.7999 24.8 15.7999ZM20 0.799904C14.9079 0.799904 10.0243 2.82275 6.42357 6.42345C2.82287 10.0242 0.800018 14.9077 0.800018 19.9999C0.800018 25.0921 2.82287 29.9757 6.42357 33.5764C10.0243 37.1771 14.9079 39.1999 20 39.1999C22.5214 39.1999 25.0181 38.7033 27.3475 37.7384C29.677 36.7735 31.7936 35.3592 33.5765 33.5764C35.3594 31.7935 36.7736 29.6769 37.7385 27.3474C38.7034 25.018 39.2 22.5213 39.2 19.9999C39.2 17.4785 38.7034 14.9818 37.7385 12.6524C36.7736 10.3229 35.3594 8.20634 33.5765 6.42345C31.7936 4.64057 29.677 3.22631 27.3475 2.26142C25.0181 1.29653 22.5214 0.799904 20 0.799904ZM30 27.7779C30 28.9999 29 29.9999 27.778 29.9999H12.222C11 29.9999 10 28.9999 10 27.7779V12.2219C10 10.9999 11 9.9999 12.222 9.9999H27.778C29 9.9999 30 10.9999 30 12.2219V27.7779Z" fill="#3F3635"/>
</g>
<defs>
<clipPath id="clip0_1_125">
<rect width="40" height="40" fill="white"/>
</clipPath>
</defs>
</svg>
