<svg width="40" height="40" viewBox="0 0 40 40" fill="none" xmlns="http://www.w3.org/2000/svg">
<g clip-path="url(#clip0_1_127)">
<path d="M20 0.799904C9.39602 0.799904 0.800018 9.3959 0.800018 19.9999C0.800018 30.6039 9.39602 39.1999 20 39.1999C30.604 39.1999 39.2 30.6039 39.2 19.9999C39.2 9.3959 30.604 0.799904 20 0.799904ZM27.384 22.4619C27.384 22.4619 29.082 24.1379 29.5 24.9159C29.512 24.9319 29.518 24.9479 29.522 24.9559C29.692 25.2419 29.732 25.4639 29.648 25.6299C29.508 25.9059 29.028 26.0419 28.864 26.0539H25.864C25.656 26.0539 25.22 25.9999 24.692 25.6359C24.286 25.3519 23.886 24.8859 23.496 24.4319C22.914 23.7559 22.41 23.1719 21.902 23.1719C21.8375 23.1718 21.7734 23.1819 21.712 23.2019C21.328 23.3259 20.836 23.8739 20.836 25.3339C20.836 25.7899 20.476 26.0519 20.222 26.0519H18.848C18.38 26.0519 15.942 25.8879 13.782 23.6099C11.138 20.8199 8.75802 15.2239 8.73802 15.1719C8.58802 14.8099 8.89802 14.6159 9.23602 14.6159H12.266C12.67 14.6159 12.802 14.8619 12.894 15.0799C13.002 15.3339 13.398 16.3439 14.048 17.4799C15.102 19.3319 15.748 20.0839 16.266 20.0839C16.3631 20.0828 16.4585 20.0581 16.544 20.0119C17.22 19.6359 17.094 17.2259 17.064 16.7259C17.064 16.6319 17.062 15.6479 16.716 15.1759C16.468 14.8339 16.046 14.7039 15.79 14.6559C15.8936 14.5129 16.0301 14.397 16.188 14.3179C16.652 14.0859 17.488 14.0519 18.318 14.0519H18.78C19.68 14.0639 19.912 14.1219 20.238 14.2039C20.898 14.3619 20.912 14.7879 20.854 16.2459C20.836 16.6599 20.818 17.1279 20.818 17.6799C20.818 17.7999 20.812 17.9279 20.812 18.0639C20.792 18.8059 20.768 19.6479 21.292 19.9939C21.3604 20.0368 21.4393 20.0596 21.52 20.0599C21.702 20.0599 22.25 20.0599 23.734 17.5139C24.1917 16.6944 24.5894 15.8429 24.924 14.9659C24.954 14.9139 25.042 14.7539 25.146 14.6919C25.2228 14.6528 25.3079 14.6329 25.394 14.6339H28.956C29.344 14.6339 29.61 14.6919 29.66 14.8419C29.748 15.0799 29.644 15.8059 28.018 18.0079L27.292 18.9659C25.818 20.8979 25.818 20.9959 27.384 22.4619Z" fill="#3F3635"/>
</g>
<defs>
<clipPath id="clip0_1_127">
<rect width="40" height="40" fill="white"/>
</clipPath>
</defs>
</svg>
